#!OML:ASF X:\für Bonn\!DataBase\2005_08_10_Bjorn_Final\c3d\bjorn.ASF
:FULLY-SPECIFIED
:DEGREES
78
root 23.8539 19.1977 -1.79927 7.1875 -81.1007 -355.87
lowerback 31.3532 2.75869 8.35891
upperback 23.4512 2.24149 1.50672
thorax 10.1433 1.05265 -3.40046
lowerneck 6.14412 -4.70731 3.95808
upperneck -5.09225 -5.87114 0.991568
head -2.78466 -3.03047 -0.106544
rclavicle -3.49861e-014 -3.18055e-015
rhumerus 31.4975 4.04331 -71.7525
rradius 26.5115
rwrist -9.70355
rhand -11.5511 12.1977
rfingers 7.12502
rthumb 14.4896 -17.2764
lclavicle -3.49861e-014 -3.18055e-015
lhumerus 21.9517 -25.0681 75.7421
lradius 28.558
lwrist -14.8641
lhand -26.1395 -9.93138
lfingers 7.12502
lthumb 0.411015 20.048
rfemur -36.6695 -13.8862 21.8363
rtibia 35.2822
rfoot -2.35377 18.9977
rtoes 6.46216
lfemur -32.9285 9.44265 -13.7969
ltibia 36.6466
lfoot -4.61749 10.0212
ltoes -21.0198
79
root 23.8853 19.1806 -1.77896 7.99889 -80.9976 -355.801
lowerback 31.7857 2.70115 8.38917
upperback 23.5475 2.16556 1.53319
thorax 10.0854 1.00764 -3.37496
lowerneck 6.13287 -4.70912 3.89534
upperneck -5.71779 -5.88018 0.976283
head -2.99424 -3.0457 -0.0900753
rclavicle -4.6118e-014 -5.96354e-015
rhumerus 32.4784 4.03225 -71.2191
rradius 26.324
rwrist -9.88163
rhand -11.518 12.1066
rfingers 7.12502
rthumb 14.5215 -17.3652
lclavicle -4.6118e-014 -5.96354e-015
lhumerus 23.599 -25.1216 75.1597
lradius 28.1782
lwrist -14.69
lhand -25.9306 -9.87972
lfingers 7.12502
lthumb 0.61275 20.0991
rfemur -37.9927 -13.7811 21.9551
rtibia 35.6561
rfoot -2.3567 18.8282
rtoes 6.35478
lfemur -34.1266 9.62105 -14.1208
ltibia 36.7549
lfoot -4.66945 9.819
ltoes -21.5052
80
root 23.917 19.1611 -1.75968 8.69118 -80.9122 -355.583
lowerback 32.2581 2.6604 8.38056
upperback 23.5793 2.12118 1.56266
thorax 9.9362 0.971932 -3.33132
lowerneck 6.11286 -4.71483 3.82699
upperneck -6.18595 -5.89759 0.952051
head -3.14983 -3.06146 -0.0778145
rclavicle 2.8625e-014 -5.24792e-014
rhumerus 33.354 3.99024 -70.7051
rradius 26.1284
rwrist -10.0012
rhand -11.457 12.0529
rfingers 7.12502
rthumb 14.5802 -17.4146
lclavicle 2.8625e-014 -5.24792e-014
lhumerus 25.164 -25.277 74.5537
lradius 27.8228
lwrist -14.3874
lhand -25.7744 -9.75767
lfingers 7.12502
lthumb 0.763622 20.2207
rfemur -39.3559 -13.6327 22.0455
rtibia 36.053
rfoot -2.42577 18.632
rtoes 5.95662
lfemur -35.3679 9.8404 -14.4908
ltibia 36.8802
lfoot -4.70131 9.60116
ltoes -22.0389
81
root 23.9487 19.1398 -1.73986 9.46873 -80.7863 -355.467
lowerback 32.7733 2.58881 8.41835
upperback 23.5947 2.05655 1.58756
thorax 9.75639 0.931648 -3.312
lowerneck 6.09403 -4.70843 3.71432
upperneck -6.68068 -5.89885 0.993456
head -3.31147 -3.07105 -0.0368989
rclavicle -1.74931e-014 -8.74653e-015
rhumerus 34.1834 3.9464 -70.1982
rradius 25.9696
rwrist -10.0817
rhand -11.4487 12.0067
rfingers 7.12502
rthumb 14.5882 -17.4603
lclavicle -1.74931e-014 -8.74653e-015
lhumerus 26.7141 -25.2665 74.0703
lradius 27.3833
lwrist -14.31
lhand -25.5883 -9.60768
lfingers 7.12502
lthumb 0.943332 20.37
rfemur -40.7149 -13.5334 22.1472
rtibia 36.4764
rfoot -2.4873 18.4374
rtoes 5.69505
lfemur -36.6211 10.0989 -14.8577
ltibia 37.0282
lfoot -4.74069 9.25189
ltoes -22.4593
82
root 23.9794 19.1176 -1.71969 10.0582 -80.6576 -355.138
lowerback 33.2441 2.5314 8.42417
upperback 23.6215 1.99818 1.62695
thorax 9.60724 0.8909 -3.26083
lowerneck 6.00981 -4.70803 3.59639
upperneck -7.11386 -5.91368 1.02484
head -3.44038 -3.08582 -0.000185405
rclavicle -6.04305e-014 -9.54166e-015
rhumerus 35.0356 3.93378 -69.6031
rradius 25.8576
rwrist -10.2962
rhand -11.3866 11.8451
rfingers 7.12502
rthumb 14.6481 -17.6175
lclavicle -6.04305e-014 -9.54166e-015
lhumerus 28.2908 -25.2276 73.6015
lradius 26.9185
lwrist -14.3069
lhand -25.4232 -9.4747
lfingers 7.12502
lthumb 1.10284 20.5022
rfemur -42.1071 -13.4209 22.1995
rtibia 36.9189
rfoot -2.52643 18.2309
rtoes 5.49183
lfemur -37.9149 10.3067 -15.2575
ltibia 37.2015
lfoot -4.81087 8.91105
ltoes -22.5694
